HIERARCHY
ROOT hip
{
	OFFSET 0.000000 0.000000 0.000000 
	CHANNELS 6 Xposition Yposition Zposition Xrotation Zrotation Yrotation
	JOINT abdomen
	{
		OFFSET 0.000000 3.402643 0.000000 
		CHANNELS 3 Xrotation Zrotation Yrotation
		JOINT chest
		{
			OFFSET 0.000000 8.438565 -0.680529 
			CHANNELS 3 Xrotation Zrotation Yrotation
			JOINT neck
			{
				OFFSET 0.000000 10.207942 -0.272212 
				CHANNELS 3 Xrotation Zrotation Yrotation
				JOINT head
				{
					OFFSET 0.000000 3.130431 0.000000 
					CHANNELS 3 Xrotation Zrotation Yrotation
					End Site
					{
						OFFSET 0.000000 3.130435 0.000000 
					}
				}
			}
			JOINT lCollar
			{
				OFFSET 3.470700 6.669187 -0.816635 
				CHANNELS 3 Yrotation Zrotation Xrotation
				JOINT lShldr
				{
					OFFSET 3.198488 0.000000 0.000000 
					CHANNELS 3 Zrotation Yrotation Xrotation
					JOINT lForeArm
					{
						OFFSET 10.139888 0.000000 0.000000 
						CHANNELS 3 Yrotation Zrotation Xrotation
						JOINT lHand
						{
							OFFSET 8.370511 0.000000 0.000000 
							CHANNELS 3 Zrotation Yrotation Xrotation
							End Site
							{
								OFFSET 4.083176 0.000000 0.000000 
							}
						}
					}
				}
			}
			JOINT rCollar
			{
				OFFSET -3.470700 6.669187 -0.816635 
				CHANNELS 3 Yrotation Zrotation Xrotation
				JOINT rShldr
				{
					OFFSET -3.198488 0.000000 0.000000 
					CHANNELS 3 Zrotation Yrotation Xrotation
					JOINT rForeArm
					{
						OFFSET -10.139888 0.000000 0.000000 
						CHANNELS 3 Yrotation Zrotation Xrotation
						JOINT rHand
						{
							OFFSET -8.370511 0.000000 0.000000 
							CHANNELS 3 Zrotation Yrotation Xrotation
							End Site
							{
								OFFSET -4.083176 0.000000 0.000000 
							}
						}
					}
				}
			}
		}
	}
	JOINT lThigh
	{
		OFFSET 5.308129 -1.633274 1.361059 
		CHANNELS 3 Xrotation Zrotation Yrotation
		JOINT lShin
		{
			OFFSET -2.041588 -20.007561 0.000000 
			CHANNELS 3 Xrotation Zrotation Yrotation
			JOINT lFoot
			{
				OFFSET 0.000000 -19.190928 -1.224953 
				CHANNELS 3 Xrotation Yrotation Zrotation
				End Site
				{
					OFFSET 0.000000 -2.449906 4.627600 
				}
			}
		}
	}
	JOINT rThigh
	{
		OFFSET -5.308129 -1.633274 1.361059 
		CHANNELS 3 Xrotation Zrotation Yrotation
		JOINT rShin
		{
			OFFSET 2.041588 -20.007561 0.000000 
			CHANNELS 3 Xrotation Zrotation Yrotation
			JOINT rFoot
			{
				OFFSET 0.000000 -19.190928 -1.224953 
				CHANNELS 3 Xrotation Yrotation Zrotation
				End Site
				{
					OFFSET 0.000000 -2.449906 4.627600 
				}
			}
		}
	}
}
MOTION
Frames: 15
Frame Time: 0.033333
-21.227379 48.542728 12.451445 3.817146 1.718347 68.679230 0.000000 0.000000 0.000000 0.089101 -0.171780 3.684764 11.312370 -1.327065 15.472866 3.964237 -1.574537 12.270312 2.177286 0.053044 0.624548 1.772191 -59.310207 -71.219261 -134.331055 -1.831539 7.266162 17.516209 14.486163 -1.936148 9.022017 13.064302 0.049183 55.687206 -20.708059 10.266507 43.405098 8.892618 15.150162 -15.467446 -8.412878 -2.905103 -15.013275 3.269818 3.834902 18.421160 -4.511400 24.759865 -1.673933 0.065647 -2.788668 -3.134388 -9.771182 -9.621562 26.812586 1.266418 -35.458443 -15.946361 -2.296903 15.939370 
-20.564878 48.530392 12.130189 4.070404 1.456354 68.592125 0.000000 0.000000 0.000000 -0.428131 -0.638092 3.836582 11.116899 -1.929589 15.457995 3.293648 -1.212456 12.151049 2.442499 -0.373786 0.165925 2.004191 -59.645493 -71.720268 -134.380692 -1.903933 7.147951 17.998867 14.683328 -1.861967 9.137637 12.524067 -0.346406 56.506153 -21.394875 10.836313 43.065956 8.964716 15.595944 -15.558613 -8.249660 -2.908892 -15.248008 2.615606 3.870114 19.850546 -4.745242 24.937092 -3.396108 0.086638 -2.858448 -2.490363 -10.554735 -9.935128 26.244110 1.233506 -34.938217 -15.787606 -2.352475 16.640875 
-19.908636 48.512806 11.815376 4.270821 1.392405 68.813293 0.000000 0.000000 0.000000 -0.780345 -1.095048 3.879618 10.690584 -2.336503 15.266794 4.003274 -1.423109 12.035002 2.449046 -0.894517 -0.136577 2.111573 -59.918301 -72.070160 -134.315979 -1.940799 7.273638 18.132492 14.613644 -1.855378 9.188396 12.034429 -0.601707 57.393105 -22.045908 10.916603 42.745415 8.970587 15.940375 -15.674690 -7.984429 -2.940386 -15.150271 1.873834 3.769692 21.127359 -4.831065 24.726599 -5.059074 0.123499 -2.910410 -1.582101 -11.216735 -10.212571 25.582048 1.010571 -35.052425 -15.387566 -2.422310 17.500048 
-19.276958 48.504444 11.519101 4.444008 1.667867 69.469284 0.000000 0.000000 0.000000 -0.851379 -1.633264 3.685358 10.453026 -2.888078 14.892100 4.509976 -1.357133 11.858803 2.154065 -1.432027 -0.165846 2.405586 -59.962143 -72.624901 -134.336304 -2.057847 6.935359 18.329781 14.709237 -1.825086 8.909656 11.349866 -0.562314 58.586235 -22.279222 10.625641 42.182571 9.024026 15.837276 -15.862385 -8.105341 -2.912227 -14.626623 1.015463 3.669229 21.653591 -4.990904 24.194311 -6.178699 0.157741 -2.649208 -0.108611 -11.937224 -10.833306 24.732050 0.912359 -35.233955 -15.011906 -2.474862 18.268900 
-18.713116 48.482937 11.185914 4.292862 1.553917 69.754417 0.000000 0.000000 0.000000 -0.997923 -1.736541 3.734335 10.052766 -3.152900 14.856670 5.490365 -1.682855 11.733422 2.158906 -1.778638 -0.292619 2.256092 -60.350548 -72.171555 -134.308502 -1.902679 7.348633 18.950413 15.060849 -1.696867 9.040748 11.211733 -0.688923 59.325546 -22.829021 10.126851 42.138805 8.846945 15.924554 -15.494361 -8.057137 -2.932601 -14.556818 0.722141 3.868136 22.535143 -5.213586 23.803249 -7.373575 0.156632 -2.348319 0.945800 -12.329735 -11.330522 23.771505 0.977737 -35.013397 -14.596596 -2.453739 18.766222 
-18.158815 48.465504 10.881775 4.242081 1.716877 70.247467 0.000000 0.000000 0.000000 -0.979196 -1.980519 3.747536 9.770843 -3.571898 14.638161 6.610036 -1.933347 11.461647 2.070890 -2.001737 -0.263338 2.003268 -60.837624 -71.696823 -134.013611 -1.434616 10.118231 18.613136 15.769657 -1.619461 9.039724 11.111878 -0.639702 59.599922 -22.854929 10.073245 41.813465 9.054719 15.479198 -15.601506 -8.039761 -2.944294 -14.031254 0.371093 4.107899 23.128016 -5.587042 22.439068 -8.587666 0.144262 -1.835389 2.332030 -12.876574 -12.112988 22.775276 1.055786 -34.696011 -14.204262 -2.462194 19.204157 
-17.704515 48.489983 10.553342 3.909777 1.376659 70.172920 0.000000 0.000000 0.000000 -1.172312 -1.809007 4.006007 9.456652 -3.881617 14.760768 7.441747 -2.089107 11.100881 2.271081 -1.804966 -0.448949 1.413685 -61.090195 -72.071205 -134.069778 -1.641315 9.916180 18.331310 15.856874 -1.640196 9.269439 11.379605 -0.847459 59.819233 -22.923656 9.654045 41.818035 8.864619 15.612406 -15.354514 -8.087645 -2.941076 -13.737736 0.400462 4.359209 23.585897 -5.868114 21.687613 -9.751957 0.153568 -1.458979 3.248337 -13.098745 -12.803563 21.246338 1.342456 -33.724594 -13.625156 -2.357834 19.123304 
-17.269737 48.529518 10.285561 3.579286 1.472395 70.816139 0.000000 0.000000 0.000000 -0.977896 -1.766260 3.835226 9.220396 -4.365364 14.662008 7.751792 -2.004778 10.817173 2.129516 -1.924245 -0.273094 1.927522 -61.396046 -73.358543 -133.905869 -1.842136 9.224955 18.742203 15.696827 -1.629903 8.874554 11.182050 -0.639984 60.068466 -22.139294 9.804740 41.591522 8.993644 15.490877 -15.422976 -8.221348 -2.924549 -12.889663 0.136679 4.325248 23.617542 -5.949891 20.509068 -10.608586 0.076202 -0.991148 4.887735 -13.039656 -13.772537 19.488194 1.468905 -33.454720 -12.984698 -2.208866 19.061798 
-16.957836 48.545525 10.029462 3.186815 0.987881 71.285004 0.000000 0.000000 0.000000 -1.163538 -1.590705 3.720579 9.010498 -4.507878 14.626077 7.306452 -1.899881 10.718589 1.724224 -1.761914 -0.458858 2.822638 -61.294937 -74.887123 -133.614044 -2.107844 8.667424 19.111776 15.462318 -1.629307 9.156332 11.756045 -0.887527 59.887249 -22.188778 9.286552 42.394192 8.664834 15.664115 -15.212210 -8.165094 -2.937857 -12.916867 0.273453 4.417935 23.936207 -6.023980 19.556595 -11.365396 0.074029 -0.571002 5.505164 -12.682434 -14.672093 18.290110 1.871922 -33.760609 -12.445009 -2.132240 18.891092 
-16.685917 48.534889 9.872918 2.639843 1.179101 72.411415 0.000000 0.000000 0.000000 -0.814999 -1.668495 3.208047 9.153001 -4.393297 14.202211 6.785429 -1.909167 10.767711 1.237181 -1.379698 -0.126887 3.925074 -61.527676 -76.252052 -133.094177 -2.154643 8.580921 19.357340 15.104425 -1.649119 8.516495 11.689974 -0.534528 60.178455 -21.300678 9.125754 42.926666 8.569121 15.305969 -15.098302 -7.979323 -2.963073 -12.548655 0.312659 4.333000 24.356323 -5.955975 18.253626 -11.913932 0.013198 -0.145604 6.245088 -12.318434 -16.158184 18.158272 2.413640 -35.531666 -11.891997 -2.030484 19.002985 
-16.461403 48.542564 9.756325 2.105438 1.312156 73.566582 0.000000 0.000000 0.000000 -0.397827 -1.731455 2.645066 9.091223 -4.308800 13.652570 6.598694 -1.966729 10.768040 0.815559 -1.129210 0.254024 5.438125 -61.651287 -77.895950 -132.646606 -2.232061 8.155436 19.420780 14.913139 -1.675367 7.859213 11.338758 -0.138556 60.853352 -19.974096 8.806027 43.162807 8.403145 15.131202 -15.422313 -7.680159 -2.988009 -12.204712 0.429489 4.256370 24.613937 -5.784464 16.881701 -12.196935 -0.023757 0.238333 6.148115 -11.850126 -17.549549 18.709677 2.834122 -39.077930 -10.855182 -1.906609 19.306122 
-16.274996 48.549927 9.673368 1.600192 1.393396 74.720131 0.000000 0.000000 0.000000 -0.028741 -1.761599 2.118222 9.038178 -4.440638 13.194248 6.272098 -1.296041 10.559212 0.490472 -1.147306 0.595953 6.446112 -61.842678 -78.694321 -132.271347 -2.149282 8.348365 19.310038 14.697771 -1.720762 7.232236 10.975627 0.226173 61.431030 -18.621773 8.646173 43.415668 8.243740 14.945260 -15.681260 -7.757940 -2.965690 -11.984349 0.643713 4.252727 24.807316 -5.685974 15.860773 -12.420107 -0.059205 0.558144 5.740149 -11.180162 -18.606001 19.408501 3.075531 -43.069382 -9.860990 -1.745641 19.603386 
-16.096909 48.571117 9.654936 1.059896 1.459573 75.913857 0.000000 0.000000 0.000000 0.262715 -1.833939 1.664331 9.267341 -4.414926 12.488807 5.523967 -1.143263 10.334044 0.135779 -1.238337 0.859594 6.513986 -62.192486 -78.207504 -132.096588 -1.954966 8.716487 18.990654 14.524522 -1.781084 6.957403 11.152102 0.482976 61.548386 -17.778875 8.407169 43.791565 8.082903 15.012055 -15.788362 -7.473638 -3.005281 -11.683000 0.994881 4.298400 25.025944 -5.595720 14.282046 -12.690706 -0.123468 0.939992 5.064246 -10.405732 -19.398180 20.213778 3.306488 -47.095333 -8.930922 -1.600869 19.655260 
-15.916853 48.603920 9.672215 0.635152 1.540930 77.013618 0.000000 0.000000 0.000000 0.535329 -1.916160 1.417063 9.282382 -4.526022 12.127863 5.162554 -0.567230 10.107889 -0.057963 -1.554139 1.104168 6.623858 -62.792908 -77.652786 -131.967575 -1.603703 9.125783 18.993929 14.493824 -1.782152 6.734270 10.994986 0.739988 62.075054 -16.978754 8.010415 43.815693 7.917125 15.174399 -16.019987 -7.528656 -2.982299 -11.204120 1.326676 4.346047 25.065725 -5.596145 12.749673 -13.018990 -0.151734 1.253609 3.794764 -9.944826 -20.098198 21.362778 3.519566 -52.536324 -7.412984 -1.326894 19.698870 
-15.724791 48.656906 9.704803 0.287597 1.383612 78.273705 0.000000 0.000000 0.000000 0.505245 -1.945032 1.007807 9.294310 -4.640323 11.581245 4.888730 -0.355892 9.951343 -0.193487 -2.181745 1.075291 5.907102 -63.262154 -76.163750 -132.036148 -1.272901 9.542136 18.839315 14.691811 -1.776052 6.510491 10.452729 0.719481 62.882442 -16.353291 7.703094 43.438683 7.929513 14.940510 -16.310884 -7.415314 -2.992635 -10.959889 1.473006 4.151781 24.885090 -5.300829 11.950280 -13.095986 -0.136485 1.305401 2.576967 -9.617125 -20.633532 21.870819 3.981594 -57.456841 -6.069010 -1.054494 19.351021 
